<svg xmlns="http://www.w3.org/2000/svg" viewBox="0 0 1067.4711 406.7816"><defs><style>.cls-1{fill:#fff;}</style></defs><g id="Layer_4" data-name="Layer 4"><path class="cls-1" d="M233.7533,507.661q-13.3029-10.7466-26.7116-21.35c-9.0967,1.9325-13.6414,2.9227-22.7226,4.9513-1.8342-8.2116-2.7514-12.3174-4.5857-20.5291q16.6212-3.6668,33.2716-7.1681c7.7855-1.6158,11.4941-7.6151,9.9117-15.4641-1.6093-7.9819-7.3849-11.949-15.2616-10.3143q-22.6,4.7547-45.12,9.8429,8.2181,35.9171,16.436,71.8339c-9.1652,2.0971-13.7437,3.17-22.8917,5.3667q-11.5157-47.9675-23.0319-95.9348,34.6734-8.2332,69.5338-15.5582c21.4593-4.7872,39.1145,8.55,43.4328,29.265,2.6517,12.7208-1.5183,27.0859-12.4188,34.9152q16.5934,11.7247,32.9561,23.7719Q250.1333,504.3947,233.7533,507.661Z" transform="translate(-133.0472 -118.0488)"/><path class="cls-1" d="M451.4479,474.888c-5.673-8.2174-8.5328-12.3172-14.2992-20.4983q-17.2376,1.8616-34.4487,3.8977c3.2753-7.997,4.9311-11.9927,8.2791-19.9781,5.4543-.6341,8.1821-.9427,13.6392-1.5432-6.3992-8.9075-9.6267-13.35-16.1372-22.2122q-14.3525,34.1213-27.8867,68.56c-10.5933,1.4042-15.8868,2.1387-26.4667,3.6722q19.3121-49.4685,40.4035-98.1843c2.307-5.2,5.5063-8.728,10.7883-9.3393,5.15-.5959,9.07,2.1077,12.5027,6.6434Q449.4772,428.53,479.537,472.269,465.4849,473.4788,451.4479,474.888Z" transform="translate(-133.0472 -118.0488)"/><path class="cls-1" d="M606.6881,464.9353c-27.4725,1.6591-47.6424-23.1044-48.939-48.4633-1.3561-26.5212,18.3012-50.2347,46.1106-50.1569q26.9876-.7044,53.9753-.9139c.0518,9.9881.0777,14.9821.13,24.97q-26.7024.2073-53.389.904c-13.8148-.31-23.2384,13.043-22.7751,25.3494.46,12.2147,10.5993,24.3634,24.1679,23.2146q26.1242-.6819,52.2484-.8847c.0522,10.0424.0782,15.0636.13,25.1059Q632.51,464.2613,606.6881,464.9353Z" transform="translate(-133.0472 -118.0488)"/><path class="cls-1" d="M758.6123,465.8251q1.9917-49.29,3.9833-98.58c9.8089.3964,14.7126.6207,24.5179,1.1218l-5.0355,98.5322C772.6935,466.4191,768,466.2044,758.6123,465.8251Z" transform="translate(-133.0472 -118.0488)"/><path class="cls-1" d="M913.3078,418.0234l-6.3771,58.8247c-8.8975-.9646-13.3481-1.4241-22.2526-2.298q4.1619-42.409,8.3236-84.8181c.888-9.049,6.2056-14.2615,13.6077-13.4954,3.5688.3694,5.9553,1.85,8.9184,5.3084q25.8339,30.3485,50.6955,61.4659l7.8267-58.6495c9.28,1.2385,13.9183,1.8814,23.1888,3.2147l-12.3063,85.5665c-1.2944,9-6.763,13.9657-13.6908,13.007-3.4009-.4707-5.7522-2.0231-8.3673-5.5234Q938.58,448.9218,913.3078,418.0234Z" transform="translate(-133.0472 -118.0488)"/><path class="cls-1" d="M1127.0283,512.0641c-27.1307-4.8733-41.09-33.6254-36.3546-58.677,4.9514-26.1967,29.8118-44.4695,56.8563-37.83q26.5531,5.7129,52.9884,11.9126c-2.3058,9.7184-3.4587,14.5776-5.7644,24.2961q-26.1558-6.1341-52.4129-11.7832c-13.3729-3.5657-25.7654,7.1258-28.2256,19.242-2.4418,12.0259,4.6517,26.1974,18.13,28.2815q16.9215,3.6426,33.7985,7.4552l3.48-15.2136q-18.1287-4.1469-36.3245-7.9926c1.56-7.3824,2.34-11.0735,3.9006-18.4559q30.2153,6.4659,60.27,13.601-6.954,28.9652-13.9078,57.93Q1155.3056,518.1564,1127.0283,512.0641Z" transform="translate(-133.0472 -118.0488)"/></g><g id="Layer_1" data-name="Layer 1"><path class="cls-1" d="M837.2972,195.1394l-45.0952-3.2919c2.4569-9.0544,4.79-18.2107,7.5807-27.2255.3453-1.1153,3.1532-2.1471,4.7723-2.0793,10.6412.4454,21.2692,1.2057,31.9019,1.8574,2.3138.1418,4.6291.26,7.5371.4224,1.7919-7.3115,3.558-14.5149,5.3228-21.7187,1.3454-5.492,2.49-11.0468,4.1764-16.4318.4129-1.3185,2.6628-3.0426,3.9573-2.9545,15.4168,1.05,30.8126,2.4077,47.0475,3.7539-3.5818,14.3516-6.9711,27.932-10.4285,41.7854l65.6809,8.6607c-3.2011,9.6115-6.1276,18.7593-9.4261,27.7711-.3488.9531-2.955,1.7121-4.3907,1.539-16.8478-2.0316-33.6716-4.2632-50.5028-6.4325-7.6945-.9916-7.7613-1.0007-9.8648,6.4111q-9.9416,35.0285-19.7862,70.0846a56.7536,56.7536,0,0,0-1.382,5.826c-1.1288,6.6308,1.8052,10.8445,8.4192,11.558,19.3613,2.0888,38.7406,4.0109,58.1126,5.9992,3.9743.4079,7.9957.5671,11.9084,1.3031,3.7188.7,5.1358-1.0756,6.0594-4.1834,7.4787-25.1667,14.5877-50.4555,22.7351-75.4048a162.6953,162.6953,0,0,1,12.6562-24.6631c4.9384-7.9588,13.1244-11.6245,22.2605-10.9138a350.9287,350.9287,0,0,1,36.52,4.8181c21.9075,4.05,43.6289,9.1137,65.5482,13.0922,23.8652,4.3317,30.6834,20.8812,28.0266,38.7611-2.7468,18.4859-7.9094,36.6128-12.1283,55.4-9.532-2.03-17.9086-3.9579-26.3433-5.5848-27.2691-5.26-54.5608-10.4022-81.8406-15.6063-4.5232-.8628-7.7576.1516-9.1853,5.1232-1.5131,5.2689-3.5705,10.3788-5.2078,15.6153-2.9319,9.3769-1.0194,12.3429,8.5812,14.1189,28.95,5.3552,57.9914,10.2748,86.8023,16.2971,32.22,6.7347,64.2263,14.4877,96.3216,21.8155,1.0993.251,2.1545.6952,3.864,1.258-3.3371,9.0512-6.5831,17.8547-10.018,27.1711-9.4161-2.3138-18.7176-4.6-28.0193-6.885q-77.35-19.0032-156.1308-30.7384c-36.7027-5.4189-73.5177-10.1135-110.3385-14.6807-18.4915-2.2936-37.1233-3.4343-55.6627-5.3722-13.9313-1.4562-25.6914-8.9626-24.2338-26.8594.5784-7.1005,1.134-14.3281,2.9138-21.1828,6.2673-24.1383,13.0618-48.14,19.6542-72.1937C836.1463,199.4538,836.6029,197.7236,837.2972,195.1394ZM1018.05,247.4909l62.8977,11.2439c2.025-7.3118,4.1592-14.2723,5.8337-21.3417,1.0158-4.2882-1.4087-7.0434-5.4268-8.185-3.3423-.95-6.781-1.5822-10.1994-2.2378-11.5778-2.2205-23.1268-4.632-34.7629-6.4943-8.1606-1.3061-11.2451,1.0636-13.4174,8.9388C1021.3873,235.17,1019.8345,240.9356,1018.05,247.4909Z" transform="translate(-133.0472 -118.0488)"/><path class="cls-1" d="M490.77,121.2839l50.3168-3.2351c-3.6736,15.0231-7.0916,29.0011-10.3933,42.5035,10.3408,0,20.1192.21,29.886-.0371,37.62-.9517,75.2315-2.4278,112.8567-2.9551,23.6366-.3312,47.2925.6524,70.9388,1.096,23.2323.4359,35.7146,14.78,31.1331,37.6843-6.3252,31.62-13.8455,63.0011-20.9125,94.4715-1.6758,7.462-3.7534,14.8368-5.2995,22.3233-.5845,2.8305-1.8332,3.2811-4.4074,3.2386q-55.1983-.9122-110.4-1.6312c-9.14-.125-18.3347.4767-27.41-.3249-10.8086-.9548-17.088-8.4325-17.8076-19.3959-.9181-13.9853,3.8912-26.87,7.6723-39.9426a89.5132,89.5132,0,0,1,3.553-9.8487c7.4723-17.7284,20.6955-26.5887,40.1164-26.302,22.1536.3269,44.3117.3708,66.4681.479,10.4587.0511,12.852-1.9608,15.3914-12.3419.8294-3.391,1.8485-6.7352,2.7465-10.11,1.5548-5.8429-.0194-8.2184-6.0452-8.416-16.4766-.54-32.96-1.3275-49.4379-1.2515-21.8133.1007-43.6323.6864-65.4323,1.5064-25.6184.9637-51.2169,2.4448-76.83,3.5751-2.8883.1274-4.0018,1.29-4.6975,3.9558-7.2639,27.837-14.6927,55.631-21.945,83.4709-1.6917,6.494,1.0695,9.9322,7.9312,9.7737,8.983-.2075,17.9557-.87,26.9328-1.3373,7.6141-.3964,15.2282-.7935,23.946-1.2478-1.8425,5.2847-3.3845,9.9122-5.07,14.4869-1.9445,5.2785-2.6111,12.4047-6.4247,15.2316-3.84,2.8462-10.8626,1.3941-16.49,1.8336q-27.1405,2.1194-54.2814,4.235c-2.6506.2045-5.3127.4125-7.9674.3879-13.8652-.1284-22.2476-8.3349-20.7008-22.1628,1.3611-12.1675,4.2738-24.2133,7.1948-36.1431,5.1008-20.8324,10.7388-41.5333,16.1342-62.2938.3737-1.4378.6037-2.9128,1.1558-5.6243l-60.8556,6.4266c3.4021-10.4787,6.6347-20.6716,10.1188-30.7778.3254-.9438,2.1944-1.7918,3.4266-1.9208,16.553-1.7325,33.1063-3.503,49.6943-4.8282,3.7824-.3021,5.0619-1.6077,5.8359-5.0756C484.2742,147.936,487.4468,135.1811,490.77,121.2839ZM681.5241,248.7556l-.0007-.2376c-7.485,0-14.9708-.0707-22.4547.0215-6.49.08-11.0759,3.2885-12.8053,9.12-1.6027,5.4044-3.0008,10.8774-4.27,16.3709-1.4256,6.17,1.2485,9.7567,7.5757,9.88q21.9369.4262,43.88.4614c5.8481.012,9.326-2.77,10.8828-8.3839,1.8177-6.5553,3.4774-13.1556,5.121-19.7575,1.4581-5.8568.5124-7.2746-5.485-7.4286C696.4914,248.61,689.0059,248.7556,681.5241,248.7556Z" transform="translate(-133.0472 -118.0488)"/><path class="cls-1" d="M148.0518,376.6377c3.3757-10.52,6.3766-20.3434,9.8022-30.0164.4888-1.38,2.9186-2.5643,4.6462-2.9417,30.8659-6.7427,61.72-13.5516,92.668-19.9023,18.08-3.71,36.3072-6.7093,54.4932-9.8856,6.5833-1.15,10.7662-4.66,12.7812-11.0375,3.056-9.6723,6.3553-19.2677,9.408-28.941,2.5035-7.9329.0816-10.7565-8.1374-9.3214-22.94,4.0054-45.8538,8.1621-68.7828,12.2316a51.9024,51.9024,0,0,1-8.8794,1.2539c-11.8364.01-22.2625-4.02-20.84-19.039.9654-10.1963,3.17-20.3183,5.4174-30.3395,2.8734-12.8122,6.5429-25.4441,9.5216-38.2346,5.7264-24.59,21.4141-38.6153,45.87-42.5459,35.9705-5.7812,72.0436-10.9247,108.08-16.2941,8.3691-1.247,16.7657-2.31,26.0336-3.5783-3.49,10.8013-6.618,20.8634-10.1166,30.7949-.4081,1.1586-2.7954,2.0624-4.3819,2.298q-45.1653,6.7081-90.3619,13.2062c-2.7981.407-5.5982.8053-8.3872,1.2686-10.0488,1.6693-14.83,6.1139-17.0057,16.2162-1.7841,8.2856-3.5855,16.5874-4.8246,24.964-.9847,6.6567.94,8.1742,7.502,7.1015,21.8312-3.569,43.6331-7.3327,65.5092-10.6a85.8165,85.8165,0,0,1,18.9195-.443c10.3173.7709,16.5541,7.5625,15.9693,17.9509-.388,6.8921-2.0812,13.7821-3.8114,20.5133-4.1806,16.2644-8.848,32.4031-13.0942,48.6513-6.2494,23.9131-22.3188,35.9342-46.014,40.5029-59.1062,11.3962-118.0815,23.4713-177.11,35.27C151.5274,376.0207,150.1208,376.2584,148.0518,376.6377Z" transform="translate(-133.0472 -118.0488)"/></g></svg>